#N canvas 1 140 1080 624 10;
#X floatatom 128 20 8 0 0 0 - - -;
#X obj 137 235 osc~;
#X obj -130 308 freeverb~;
#X obj 187 58 hsl 128 15 0 10 0 1 empty empty Freq -2 -8 0 10 -261234
-1 -1 400 1;
#X obj 128 -12 netreceive 4444;
#X obj 404 -12 netreceive 4443;
#X floatatom 405 19 5 0 0 0 - - -;
#X obj 293 530 dac~;
#X obj 222 420 +~;
#X obj 430 239 osc~;
#X msg 479 489 stop;
#X obj 468 114 line~;
#X obj 471 50 hsl 128 15 0 10 0 1 empty empty Freq -2 -8 0 10 -261234
-1 -1 1500 1;
#X obj 430 190 *~;
#X obj 137 191 *~;
#X msg 468 82 \$1 50;
#X msg 184 96 \$1 5;
#X obj 130 148 line~;
#X msg 467 468 start -wave -rate 44100;
#X floatatom 494 191 5 0 0 0 - - -;
#X obj 447 550 writesf~ 2;
#X obj 497 165 hsl 50 15 0 1 0 1 empty empty volume -2 -8 0 10 -261682
-1 -1 2200 1;
#X floatatom 214 206 5 0 0 0 - - -;
#X obj 217 179 hsl 50 15 0 1 0 1 empty empty volume -2 -8 0 10 -261682
-1 -1 800 1;
#X text 160 -36 TCP;
#X text 439 -36 ETHERNET;
#X floatatom -120 24 8 0 0 0 - - -;
#X obj -111 239 osc~;
#X obj -63 139 line~;
#X obj -62 56 hsl 128 15 0 127 0 1 empty empty Freq -2 -8 0 10 -261234
-1 -1 578 1;
#X obj -110 202 *~;
#X msg -64 100 \$1 5;
#X obj -118 152 line~;
#X floatatom -34 210 5 0 0 0 - - -;
#X obj -27 180 hsl 50 15 0 1 0 1 empty empty volume -2 -8 0 10 -261682
-1 -1 1541 1;
#X obj -120 -8 netreceive 4442;
#X text -88 -32 UDP;
#X msg -170 86 0 500;
#X obj 384 137 line~;
#X msg 332 71 0 50000;
#X obj -17 85 nbx 5 14 -1e+37 1e+37 0 0 empty empty empty 0 -8 0 10
-262144 -1 -1 5.78 256;
#X obj 185 135 line~;
#X floatatom 681 19 8 0 0 0 - - -;
#X obj 690 234 osc~;
#X obj 739 57 hsl 128 15 0 10 0 1 empty empty Freq -2 -8 0 10 -261234
-1 -1 1838 1;
#X obj 690 190 *~;
#X msg 737 95 \$1 5;
#X obj 683 147 line~;
#X floatatom 767 205 5 0 0 0 - - -;
#X obj 770 178 hsl 50 15 0 1 0 1 empty empty volume -2 -8 0 10 -261682
-1 -1 300 1;
#X obj 738 134 line~;
#X obj 681 -13 netreceive 4454;
#X msg 631 81 0 200;
#X text 700 -36 TCP recv;
#X msg 78 82 0 500;
#X obj -89 366 *~ 0.25;
#X obj 159 362 *~ 0.25;
#X obj 431 303 *~ 0.25;
#X obj 712 361 *~ 0.25;
#X msg 439 428 open record_snoffer_v0.5.4.wav;
#X connect 0 0 17 0;
#X connect 0 0 54 0;
#X connect 1 0 56 0;
#X connect 2 0 55 0;
#X connect 2 1 55 0;
#X connect 3 0 16 0;
#X connect 4 0 0 0;
#X connect 5 0 6 0;
#X connect 6 0 38 0;
#X connect 6 0 39 0;
#X connect 8 0 7 0;
#X connect 8 0 7 1;
#X connect 8 0 20 0;
#X connect 8 0 20 1;
#X connect 9 0 57 0;
#X connect 10 0 20 0;
#X connect 11 0 13 1;
#X connect 12 0 15 0;
#X connect 13 0 9 0;
#X connect 14 0 1 0;
#X connect 15 0 11 0;
#X connect 16 0 41 0;
#X connect 17 0 14 0;
#X connect 18 0 20 0;
#X connect 19 0 57 1;
#X connect 21 0 19 0;
#X connect 22 0 56 1;
#X connect 23 0 22 0;
#X connect 26 0 32 0;
#X connect 26 0 37 0;
#X connect 27 0 55 0;
#X connect 28 0 30 1;
#X connect 29 0 31 0;
#X connect 29 0 40 0;
#X connect 30 0 27 0;
#X connect 31 0 28 0;
#X connect 32 0 30 0;
#X connect 33 0 55 1;
#X connect 34 0 33 0;
#X connect 35 0 26 0;
#X connect 37 0 32 0;
#X connect 38 0 13 0;
#X connect 39 0 38 0;
#X connect 41 0 14 1;
#X connect 42 0 47 0;
#X connect 42 0 52 0;
#X connect 43 0 58 0;
#X connect 44 0 46 0;
#X connect 45 0 43 0;
#X connect 46 0 50 0;
#X connect 47 0 45 0;
#X connect 48 0 58 1;
#X connect 49 0 48 0;
#X connect 50 0 45 1;
#X connect 51 0 42 0;
#X connect 52 0 47 0;
#X connect 54 0 17 0;
#X connect 55 0 8 0;
#X connect 56 0 8 0;
#X connect 57 0 8 1;
#X connect 58 0 8 0;
#X connect 59 0 20 0;
#X coords 0 0 1 1 85 60 0;
